<?xml version="1.0" standalone="no"?>
<!DOCTYPE svg PUBLIC "-//W3C//DTD SVG 20010904//EN"
 "http://www.w3.org/TR/2001/REC-SVG-20010904/DTD/svg10.dtd">
<svg version="1.0" xmlns="http://www.w3.org/2000/svg"
 width="768.000000pt" height="768.000000pt" viewBox="0 0 768.000000 768.000000"
 preserveAspectRatio="xMidYMid meet">
<metadata>
Created by potrace 1.14, written by Peter Selinger 2001-2017
</metadata>
<g transform="translate(0.000000,768.000000) scale(0.100000,-0.100000)"
fill="#000000" stroke="none">
<path d="M4958 7175 c-2 -2 -28 -6 -58 -10 -30 -3 -91 -15 -135 -26 -112 -29
-100 -25 -190 -60 -28 -10 -56 -19 -63 -19 -6 0 -12 -4 -12 -10 0 -6 -3 -9 -7
-8 -41 11 -442 -240 -703 -441 -44 -33 -128 -95 -150 -111 -13 -8 -28 -20 -34
-25 -6 -6 -58 -46 -115 -90 -57 -44 -112 -88 -123 -97 -10 -10 -20 -18 -23
-18 -4 0 -30 -19 -59 -45 -6 -6 -87 -71 -181 -145 -93 -74 -172 -137 -175
-140 -3 -3 -52 -43 -110 -90 -58 -47 -114 -92 -125 -102 -42 -35 -163 -135
-204 -168 -23 -19 -53 -43 -64 -54 -12 -10 -55 -45 -95 -78 -39 -34 -72 -62
-72 -64 0 -6 425 210 428 218 2 4 9 8 16 8 10 0 362 174 446 220 14 8 27 15
30 15 3 1 39 18 80 39 41 21 237 121 435 222 198 101 407 208 465 238 58 30
132 68 165 85 33 17 97 50 143 75 45 24 82 43 82 40 0 -2 10 2 23 10 21 14
161 64 200 71 10 3 26 6 35 9 21 6 67 15 107 21 17 2 46 7 65 10 47 8 215 8
265 1 40 -6 45 -7 100 -20 71 -17 172 -77 241 -143 197 -186 253 -382 199
-696 -9 -53 -18 -108 -20 -124 -2 -15 -4 -28 -5 -28 -1 0 -3 -11 -6 -25 -2
-14 -13 -65 -24 -115 -10 -49 -21 -101 -23 -115 -7 -38 -36 -161 -46 -195 -5
-16 -23 -85 -40 -152 -17 -67 -33 -127 -36 -135 -3 -7 17 -36 43 -65 26 -28
66 -73 88 -100 23 -26 50 -57 60 -69 41 -46 124 -141 148 -169 24 -28 38 -29
42 -2 1 7 9 39 18 72 9 33 19 71 22 85 3 14 17 68 31 120 14 52 27 106 29 120
3 14 9 39 14 55 5 17 11 41 14 55 2 14 16 75 31 135 14 61 33 142 41 180 9 39
18 79 20 90 3 11 7 31 10 45 2 14 11 57 19 95 33 159 40 227 40 405 0 169 -8
259 -32 350 -3 14 -7 30 -8 35 -23 101 -85 242 -158 355 -48 75 -218 250 -242
250 -3 0 -15 8 -26 19 -17 15 -188 105 -254 132 -34 14 -149 47 -186 53 -19 3
-45 8 -59 12 -25 6 -327 14 -332 9z"/>
<path d="M2069 7136 c-2 -2 -29 -7 -60 -10 -138 -16 -338 -76 -419 -126 -8 -5
-39 -23 -67 -40 -55 -32 -166 -122 -215 -174 -101 -109 -235 -369 -263 -508
-3 -16 -8 -40 -11 -55 -24 -113 -31 -332 -14 -423 4 -25 10 -61 13 -80 3 -19
8 -44 10 -55 22 -92 31 -121 38 -129 5 -6 9 -17 9 -26 0 -42 110 -274 186
-393 24 -37 44 -72 44 -77 0 -6 4 -10 9 -10 5 0 13 -9 16 -20 3 -11 12 -26 19
-32 6 -7 37 -49 67 -93 31 -44 84 -118 119 -165 177 -238 205 -275 210 -280 3
-3 28 -35 55 -71 28 -36 65 -83 82 -105 17 -21 88 -111 158 -199 135 -171 183
-230 203 -251 6 -7 12 -15 12 -18 0 -3 8 -14 18 -24 9 -10 31 -35 47 -56 17
-21 42 -52 56 -70 36 -43 137 -165 178 -216 19 -23 40 -48 46 -54 5 -6 42 -49
80 -96 95 -115 99 -120 106 -120 4 0 -224 462 -324 655 -12 22 -22 46 -23 53
-1 7 -7 18 -12 25 -6 7 -96 181 -200 387 -289 572 -402 792 -550 1073 -34 64
-59 117 -56 117 4 0 2 6 -4 13 -9 11 -56 155 -68 209 -50 224 -50 419 0 565
32 93 70 150 168 245 85 83 192 145 293 168 74 16 253 15 365 -4 108 -18 120
-20 170 -30 14 -3 54 -10 90 -17 36 -6 76 -15 90 -20 14 -4 41 -11 60 -14 19
-3 53 -10 75 -16 22 -5 49 -12 60 -14 27 -5 249 -63 308 -80 l47 -14 46 40
c26 22 52 46 59 52 7 7 35 31 61 54 27 22 61 52 75 65 14 12 49 43 79 68 99
84 105 91 89 101 -12 7 -31 11 -41 8 -2 0 -15 4 -31 10 -15 6 -38 13 -50 15
-28 6 -24 5 -267 66 -207 52 -358 88 -395 94 -11 1 -29 6 -40 9 -11 3 -32 8
-48 11 -15 3 -35 7 -45 10 -9 3 -28 7 -42 10 -135 26 -161 30 -280 42 -36 3
-74 8 -85 11 -24 5 -301 13 -306 9z"/>
<path d="M4596 5625 c390 -774 576 -1140 586 -1152 6 -7 7 -13 3 -13 -3 0 2
-15 13 -32 11 -18 69 -130 130 -248 124 -244 199 -388 247 -475 68 -123 114
-257 150 -445 9 -46 18 -154 18 -220 -1 -208 -52 -337 -188 -473 -107 -108
-215 -167 -350 -192 -32 -6 -181 -7 -230 -1 -88 10 -154 21 -290 48 -82 17
-160 31 -172 33 -11 2 -30 6 -41 9 -21 7 -48 13 -92 22 -14 3 -33 7 -42 10 -9
3 -25 7 -35 9 -10 2 -72 18 -138 35 -200 53 -187 51 -210 31 -11 -10 -40 -35
-64 -57 -25 -21 -52 -46 -61 -54 -9 -8 -47 -42 -85 -75 -39 -33 -86 -74 -105
-92 -19 -17 -46 -40 -60 -51 -28 -22 -26 -28 10 -36 14 -3 95 -24 180 -46 85
-23 164 -43 174 -45 11 -3 76 -19 145 -36 69 -17 135 -33 146 -35 11 -2 61
-13 110 -24 86 -20 116 -26 160 -34 11 -2 27 -6 35 -9 8 -3 33 -9 55 -13 22
-4 45 -8 50 -9 9 -2 92 -11 180 -20 17 -2 57 -7 90 -11 134 -17 366 -6 453 20
9 3 28 7 42 10 48 8 185 58 253 92 136 68 268 176 354 289 45 59 119 191 146
260 13 33 28 69 32 80 4 11 9 25 11 30 43 165 48 204 48 375 1 171 -6 224 -45
370 -48 179 -143 377 -277 577 -124 185 -132 198 -271 383 -72 96 -139 186
-148 199 -10 13 -23 29 -28 35 -6 6 -40 49 -75 96 -36 47 -67 87 -70 90 -3 3
-21 25 -40 50 -19 25 -39 50 -45 57 -5 7 -15 18 -20 25 -84 106 -302 376 -310
385 -5 7 -14 18 -20 25 -5 7 -36 45 -68 83 -32 39 -70 85 -85 103 -15 18 -31
39 -37 45 -25 29 -73 87 -105 126 -19 23 -45 53 -57 66 -13 13 -23 26 -23 29
0 3 -18 24 -40 48 -35 38 -23 11 106 -247z"/>
<path d="M3500 4948 c-238 -59 -363 -325 -254 -540 58 -115 207 -211 324 -210
120 1 223 44 293 122 97 108 124 227 83 375 -38 142 -184 253 -339 259 -40 1
-88 -1 -107 -6z"/>
<path d="M1295 4514 c-11 -38 -20 -74 -21 -80 -1 -6 -18 -76 -39 -155 -20 -79
-38 -151 -40 -159 -2 -8 -12 -53 -24 -100 -11 -47 -25 -107 -31 -135 -7 -27
-14 -59 -16 -70 -3 -11 -7 -29 -9 -40 -3 -11 -12 -51 -20 -90 -9 -38 -18 -81
-21 -95 -29 -139 -36 -170 -40 -200 -3 -19 -8 -46 -11 -60 -12 -59 -12 -388 2
-470 29 -184 82 -338 161 -468 54 -90 52 -87 144 -181 74 -75 150 -134 240
-182 25 -13 48 -28 52 -34 4 -5 8 -6 8 -1 0 4 10 2 23 -6 56 -37 213 -83 352
-104 57 -9 305 -13 319 -5 6 2 24 6 40 7 51 4 108 16 211 47 39 11 75 21 80
23 28 6 160 63 235 102 80 42 424 262 445 286 6 6 30 24 55 41 25 16 47 32 50
35 3 3 58 45 123 93 65 49 126 94 135 102 9 8 35 28 57 44 22 17 45 34 50 39
6 4 28 21 50 37 22 17 45 35 50 41 6 6 39 33 75 59 36 27 67 52 70 55 3 3 48
39 100 80 52 41 97 77 100 80 3 3 25 21 50 40 25 19 47 37 50 40 3 3 41 35 85
70 82 66 552 455 570 472 16 15 -27 -3 -57 -24 -14 -10 -29 -18 -33 -18 -10 0
-279 -133 -285 -141 -3 -4 -15 -10 -28 -13 -13 -4 -50 -23 -83 -41 -32 -19
-59 -31 -59 -28 0 3 -6 1 -12 -5 -23 -18 -488 -251 -488 -244 0 4 -4 2 -8 -4
-4 -5 -99 -57 -212 -113 -113 -57 -284 -144 -380 -193 -96 -50 -220 -113 -275
-141 -55 -29 -103 -56 -107 -62 -4 -5 -8 -6 -8 -1 0 5 -6 4 -12 -1 -65 -51
-379 -191 -465 -207 -10 -2 -36 -9 -58 -14 -116 -30 -368 -39 -460 -17 -33 8
-69 17 -80 19 -56 11 -150 73 -230 153 -47 46 -85 91 -85 99 0 8 -5 14 -10 14
-15 0 -74 133 -90 199 -13 56 -17 209 -7 296 3 28 6 50 7 50 1 0 3 16 6 35 2
19 13 80 24 135 11 55 22 116 25 135 3 19 10 51 15 70 5 19 11 46 14 60 2 14
5 25 6 25 1 0 3 9 5 20 4 17 16 68 39 165 27 108 58 224 66 245 9 25 5 33 -52
99 -35 39 -65 73 -68 76 -3 3 -34 39 -70 80 -36 41 -79 91 -96 110 -18 19 -43
48 -56 64 l-24 29 -19 -69z"/>
</g>
</svg>
